<?xml version="1.0" standalone="no"?>
<!DOCTYPE svg PUBLIC "-//W3C//DTD SVG 20010904//EN"
 "http://www.w3.org/TR/2001/REC-SVG-20010904/DTD/svg10.dtd">
<svg version="1.0" xmlns="http://www.w3.org/2000/svg"
 width="896.000000pt" height="896.000000pt" viewBox="0 0 896.000000 896.000000"
 preserveAspectRatio="xMidYMid meet">
<metadata>
Created by potrace 1.14, written by Peter Selinger 2001-2017
</metadata>
<g transform="translate(0.000000,896.000000) scale(0.100000,-0.100000)"
fill="#000000" stroke="none">
<path d="M4258 8955 c-2 -2 -30 -5 -63 -6 -33 -2 -64 -5 -69 -7 -4 -3 -25 -6
-45 -8 -52 -4 -124 -14 -141 -19 -8 -2 -31 -7 -50 -10 -89 -15 -259 -60 -376
-101 -71 -24 -133 -46 -139 -48 -72 -24 -288 -127 -400 -191 -149 -84 -267
-165 -430 -293 -89 -70 -298 -273 -376 -367 -19 -22 -43 -50 -54 -62 -27 -29
-33 -38 -85 -108 -25 -33 -47 -62 -50 -65 -9 -9 -97 -144 -140 -214 -63 -105
-153 -280 -200 -390 -36 -86 -120 -312 -120 -326 -1 -3 -10 -36 -21 -74 -11
-38 -22 -76 -24 -85 -16 -65 -46 -212 -50 -241 -2 -19 -7 -44 -9 -55 -2 -12
-7 -48 -11 -80 -4 -33 -8 -71 -11 -85 -2 -14 -7 -72 -10 -130 -10 -141 -10
-2827 0 -2960 10 -150 13 -191 19 -225 3 -16 11 -66 17 -110 7 -44 14 -89 17
-100 2 -11 6 -29 8 -40 18 -115 108 -404 177 -570 65 -157 131 -288 218 -435
37 -63 176 -267 196 -290 8 -8 48 -57 91 -109 70 -87 235 -258 328 -342 127
-113 343 -267 505 -360 82 -47 265 -141 280 -144 3 -1 23 -9 45 -19 132 -58
408 -149 492 -161 15 -2 43 -8 61 -14 18 -5 33 -10 35 -9 1 0 18 -3 37 -6 74
-13 96 -16 140 -22 25 -3 56 -7 70 -10 48 -7 246 -17 350 -17 189 1 317 11
500 42 69 12 101 18 138 26 12 3 31 7 41 9 231 52 528 165 751 286 125 69 377
232 400 260 3 3 21 17 40 30 19 14 42 32 50 40 9 8 42 38 74 65 182 156 401
405 532 605 27 41 52 77 55 80 4 3 16 23 28 45 12 22 31 56 42 75 95 157 243
496 285 650 83 308 105 417 131 675 8 83 11 3018 3 3137 -3 38 -7 68 -10 68
-3 0 -6 15 -6 33 -5 134 -69 421 -145 649 -28 84 -55 158 -59 163 -4 6 -11 21
-15 35 -16 52 -75 175 -158 330 -61 115 -215 343 -313 465 -86 107 -287 316
-389 405 -27 24 -102 82 -165 129 -63 47 -116 89 -118 94 -2 4 -8 7 -14 7 -6
0 -40 20 -77 44 -112 74 -306 175 -441 230 -36 15 -74 31 -85 36 -75 36 -422
133 -550 154 -11 2 -40 7 -65 11 -25 4 -61 9 -80 11 -19 2 -55 6 -80 9 -53 7
-506 16 -512 10z m483 -329 c145 -16 379 -60 439 -83 8 -3 24 -8 34 -10 107
-20 460 -173 611 -263 78 -47 80 -48 75 -54 -69 -73 -1345 -1346 -1350 -1346
-5 0 -7 1739 -2 1762 2 7 104 3 193 -6z m-521 -8 c4 -5 5 -1644 1 -1697 -1 -8
-29 17 -63 54 -35 38 -76 83 -93 101 -16 18 -68 74 -115 125 -47 51 -96 104
-110 119 -14 15 -68 74 -120 130 -52 57 -118 129 -146 159 -29 31 -66 72 -84
91 -17 19 -73 80 -124 135 -51 55 -104 112 -117 126 -13 15 -61 67 -106 115
-126 138 -124 135 -112 151 6 7 18 13 25 13 8 0 14 4 14 8 0 5 23 19 50 32 28
13 50 27 50 32 0 4 8 8 19 8 10 0 24 7 31 15 7 8 16 15 20 15 5 0 48 18 96 41
197 92 463 177 644 205 25 4 77 12 115 18 79 13 118 14 125 4z m2022 -648 c84
-74 231 -221 293 -295 28 -33 58 -69 68 -79 17 -19 16 -21 -25 -64 -136 -139
-2017 -2022 -2020 -2022 -2 0 -3 204 -3 453 l0 452 805 807 c443 444 808 806
812 805 3 -1 35 -27 70 -57z m-3455 21 c16 -17 60 -65 98 -107 39 -42 84 -91
100 -109 17 -17 73 -78 125 -135 52 -56 106 -115 120 -130 14 -15 63 -69 110
-120 47 -52 105 -115 130 -141 38 -40 125 -134 230 -249 37 -41 190 -207 225
-245 17 -17 71 -76 120 -130 50 -54 99 -108 110 -120 11 -12 33 -36 50 -54
l30 -32 0 -445 c0 -244 -2 -444 -4 -444 -5 0 -59 56 -234 243 -56 60 -127 135
-157 167 -30 32 -86 91 -125 132 -38 41 -128 136 -200 212 -185 196 -196 208
-335 356 -69 73 -141 150 -160 170 -39 42 -286 303 -340 360 -33 35 -238 253
-327 348 -24 25 -43 48 -43 52 0 34 407 450 440 450 6 0 22 -13 37 -29z m4070
-778 c92 -164 152 -298 213 -478 60 -175 69 -143 -87 -291 -75 -71 -169 -160
-208 -199 -40 -38 -146 -140 -236 -225 -215 -205 -372 -355 -429 -410 -26 -25
-122 -117 -215 -205 -92 -88 -192 -182 -220 -210 -29 -27 -131 -124 -226 -215
-95 -91 -194 -185 -220 -210 -25 -25 -120 -115 -209 -200 -90 -85 -191 -181
-224 -213 -34 -33 -95 -91 -136 -131 -41 -39 -82 -77 -90 -83 -14 -10 -15 40
-15 448 l0 459 293 293 c160 160 664 666 1120 1124 455 457 830 832 833 832 4
1 29 -38 56 -86z m-4616 -44 c63 -67 132 -140 154 -164 22 -23 101 -106 175
-185 74 -79 151 -160 170 -180 19 -20 89 -94 155 -165 66 -70 138 -147 160
-170 51 -53 279 -296 335 -355 89 -96 308 -328 377 -400 39 -41 90 -95 113
-120 23 -25 97 -103 165 -175 67 -71 138 -146 156 -167 l34 -36 0 -446 c0
-245 -1 -446 -3 -446 -2 0 -38 37 -80 81 -42 45 -104 110 -137 144 -33 34
-116 122 -185 194 -69 73 -152 161 -185 195 -33 35 -123 129 -200 211 -77 81
-167 176 -200 210 -50 53 -233 245 -375 395 -33 35 -285 300 -395 415 -67 70
-314 331 -403 425 -39 41 -107 113 -152 160 -44 46 -80 89 -80 95 0 27 102
282 144 360 9 17 16 33 16 36 0 13 112 209 119 209 5 0 60 -55 122 -121z
m-381 -981 c58 -61 150 -158 205 -216 55 -58 120 -126 145 -152 25 -26 106
-111 180 -190 74 -78 155 -163 180 -189 108 -114 359 -378 400 -421 75 -79
332 -349 379 -399 24 -25 114 -120 200 -210 86 -90 176 -185 201 -212 25 -26
106 -111 180 -189 74 -79 155 -163 179 -189 24 -25 62 -65 84 -89 l42 -43 1
-437 c0 -240 -2 -441 -4 -446 -5 -8 -48 36 -317 319 -77 81 -165 173 -195 205
-110 114 -386 404 -424 444 -33 36 -168 178 -462 486 -45 47 -99 103 -120 126
-130 137 -330 347 -394 414 -41 42 -136 142 -210 220 -74 78 -169 177 -210
220 -41 43 -104 109 -140 148 l-65 69 1 204 c1 191 10 399 19 444 2 11 7 43
10 70 3 28 7 59 9 70 3 11 5 28 5 38 1 9 4 17 9 17 4 0 54 -50 112 -112z
m5345 -25 c3 -15 7 -48 11 -73 3 -25 8 -208 11 -407 l5 -362 -1338 -1341
-1339 -1341 0 520 c0 513 0 520 21 543 12 13 81 79 153 148 73 69 168 159 210
200 43 41 127 122 187 179 60 56 192 182 293 280 101 97 199 190 216 206 18
17 110 105 206 196 96 92 195 186 220 210 65 61 348 332 424 404 67 65 378
362 455 435 26 25 93 89 150 143 56 54 104 96 107 94 2 -3 6 -18 8 -34z
m-5382 -1306 c64 -68 143 -151 175 -184 60 -63 355 -373 432 -454 25 -26 106
-111 180 -188 74 -78 160 -168 190 -200 30 -32 129 -136 220 -231 91 -95 187
-196 213 -224 27 -28 117 -122 200 -210 84 -87 168 -175 187 -196 19 -20 105
-110 190 -199 85 -89 179 -188 209 -219 29 -31 71 -76 93 -99 l40 -41 -457 -1
-458 0 -769 771 c-422 424 -768 773 -769 777 -4 25 -3 1021 1 1021 3 0 58 -56
123 -123z m5407 -449 l0 -453 -770 -772 -771 -771 -449 0 c-248 0 -450 2 -450
5 0 5 2432 2443 2437 2443 2 0 3 -204 3 -452z m-4981 -1461 c289 -290 528
-529 530 -532 1 -2 -216 -4 -483 -3 l-486 0 -11 41 c-5 23 -15 60 -21 82 -6
22 -12 45 -12 50 -1 6 -5 24 -9 40 -10 43 -16 80 -27 165 -6 41 -13 89 -15
107 -10 69 -17 237 -19 415 -1 158 1 185 13 175 8 -7 251 -249 540 -540z
m4978 281 c-3 -145 -8 -274 -11 -288 -2 -14 -7 -52 -11 -85 -8 -79 -22 -164
-42 -250 -8 -38 -16 -77 -17 -85 -1 -9 -5 -20 -8 -25 -3 -6 -8 -27 -12 -47
l-7 -37 -488 0 -488 1 536 538 c295 297 540 539 545 540 5 0 6 -115 3 -262z
m-231 -1141 c5 -5 -51 -136 -65 -150 -6 -6 -11 -16 -11 -22 0 -24 -192 -346
-212 -353 -4 -2 -8 -8 -8 -12 0 -10 -109 -159 -119 -162 -3 -1 -957 -2 -2120
-3 l-2113 -2 -45 56 c-106 135 -262 390 -328 536 -15 33 -31 68 -36 77 -5 10
-9 23 -9 30 0 11 497 13 2531 11 1393 -1 2533 -4 2535 -6z m-743 -1026 c13 -1
8 -9 -20 -35 -30 -26 -165 -129 -268 -204 -5 -4 -22 -13 -37 -21 -16 -8 -28
-18 -28 -23 0 -4 -4 -8 -9 -8 -5 0 -43 -20 -84 -44 -105 -62 -283 -145 -407
-190 -128 -47 -132 -48 -145 -51 -5 -2 -41 -12 -80 -23 -84 -24 -150 -40 -200
-48 -21 -3 -47 -8 -59 -10 -11 -2 -41 -7 -66 -10 -25 -3 -56 -7 -70 -9 -97
-17 -352 -23 -515 -11 -128 9 -194 18 -310 40 -11 2 -35 7 -54 10 -45 9 -252
65 -263 72 -4 3 -17 7 -29 9 -19 4 -112 39 -189 72 -59 25 -272 131 -320 160
-59 34 -184 115 -190 122 -3 4 -22 17 -42 31 -21 14 -38 28 -38 33 0 4 -6 7
-12 7 -7 0 -38 23 -68 50 -30 27 -58 50 -62 50 -4 0 -12 8 -17 18 -9 16 79 17
1777 15 983 -1 1795 -2 1805 -2z"/>
</g>
</svg>
