<svg width="125" height="129" viewBox="0 0 125 129" fill="none" xmlns="http://www.w3.org/2000/svg">
<path d="M81.9535 80.2855C87.705 72.1359 92.8826 62.4138 93.2899 52.2673C93.6825 42.6435 88.5427 34.6662 80.0077 30.3103C72.2402 26.3441 63.0917 25.075 54.4406 24.7474C44.7698 24.382 34.7734 25.2447 25.4615 28.0649C18.8732 30.0732 11.8454 33.155 8.75051 39.7234C6.03787 45.4563 7.13141 52.0453 9.17169 57.7719C11.651 64.7548 15.6761 71.1561 20.0395 77.106C24.1141 82.7003 28.6041 88.4359 33.8051 93.0229C40.4954 98.927 49.1774 102.123 58.0531 99.5534C68.2788 96.5932 75.082 88.3892 82.038 80.8935C82.9713 79.8849 81.5635 78.2607 80.6147 79.2769C74.7094 85.6494 69.0823 92.5928 60.9343 96.2206C53.9134 99.3562 46.3392 98.8282 39.8243 94.8244C33.8998 91.1628 29.332 85.4652 25.0305 80.077C20.8509 74.8203 16.9615 69.2503 13.9202 63.2478C11.1572 57.8161 8.73784 51.5487 9.4014 45.3253C10.0987 38.8944 14.6838 34.712 20.3827 32.1825C28.2587 28.6682 37.1795 27.3369 45.7015 26.9256C54.5251 26.501 63.6524 27.0549 72.1275 29.5496C81.5648 32.32 90.0524 38.4747 91.0479 48.8921C92.085 59.6712 86.1732 70.5339 80.1536 79.0816C79.3497 80.2372 81.1421 81.4257 81.9535 80.2855Z" fill="#D3CBCF"/>
<path d="M82.046 80.9087C83.7805 78.9368 85.8993 77.1212 88.5414 76.6162C90.7264 76.2004 92.9365 76.7844 94.9021 77.7357C99.4935 79.9658 103.19 83.7968 107.096 86.9911C109.121 88.6579 111.233 90.2637 113.684 91.303C113.832 90.6197 113.973 89.9209 114.114 89.2222C103.35 87.404 89.4662 89.4167 82.5571 79.113C81.7918 77.9776 80.173 79.3967 80.9226 80.5398C88.2259 91.4151 102.611 89.4442 113.946 91.3662C115.226 91.5825 115.436 89.7232 114.391 89.2779C109.697 87.2701 106.004 83.1316 102.105 79.9912C98.3362 76.9593 93.689 73.7062 88.5554 74.4327C85.3498 74.8877 82.6945 76.9457 80.607 79.2997C79.7044 80.3316 81.1122 81.9558 82.046 80.9087Z" fill="#D3CBCF"/>
<path d="M81.3274 82.0421C86.7823 87.861 91.0822 95.6559 89.4413 103.864C90.0014 103.591 90.5615 103.318 91.1217 103.045C87.4646 100.875 84.9192 97.075 83.2629 93.2425C81.6067 89.4099 80.5715 84.7973 81.9482 80.7084C82.3833 79.3889 80.3524 78.6985 79.9172 80.0181C78.3954 84.5596 79.4018 89.5872 81.1908 93.8897C82.9803 98.1537 85.8592 102.44 89.9306 104.829C90.6821 105.264 91.4455 104.816 91.611 104.01C93.3595 95.2715 88.7673 86.798 82.9774 80.6078C82.0094 79.6094 80.3749 81.0361 81.3274 82.0421Z" fill="#D3CBCF"/>
<path d="M82.0651 80.04C86.8344 67.9393 101.315 62.9243 112.81 68.4535C112.686 67.8452 112.563 67.237 112.463 66.6366C110.31 68.698 108.378 70.9762 106.218 73.0222C104.182 74.969 101.828 77.0137 98.9258 77.34C97.5403 77.4998 97.9449 79.5939 99.3223 79.4572C105.514 78.7686 109.768 72.2081 113.902 68.2456C114.529 67.6347 114.285 66.7796 113.556 66.4287C100.963 60.3846 85.2264 66.2599 80.0573 79.3575C79.5299 80.6456 81.5608 81.336 82.0651 80.04Z" fill="#D3CBCF"/>
<path d="M85.9377 48.4808C84.4539 47.3328 82.5879 47.0203 80.7922 46.6545C80.5378 46.6066 80.188 46.758 80.0003 46.9259C79.8125 47.0938 79.6463 47.3848 79.6427 47.6539C79.631 47.946 79.6966 48.2386 79.9103 48.44C80.1159 48.6644 80.3467 48.7428 80.6397 48.7909C80.578 48.7828 80.3392 48.7274 80.6397 48.7909C80.7014 48.799 80.7707 48.8226 80.8324 48.8307C80.9403 48.8545 81.0637 48.8707 81.1716 48.8945C81.3873 48.9421 81.6186 48.9821 81.8419 49.0451C82.2348 49.14 82.6276 49.235 83.0124 49.3529C83.1895 49.4002 83.3586 49.4706 83.5277 49.5409C83.6044 49.5799 83.6967 49.6113 83.7735 49.6502C83.8197 49.6659 83.8658 49.6816 83.8964 49.7049C84.073 49.7907 83.6431 49.5801 83.8197 49.6659C84.1573 49.845 84.4638 50.0393 84.7623 50.2566C85.1982 50.5979 85.981 50.4264 86.2657 49.9439C86.5585 49.4384 86.4198 48.8377 85.9377 48.4808Z" fill="#D3CBCF"/>
<path d="M76.0744 66.9591C75.0494 66.7523 74.073 66.3689 73.1284 65.9319C73.0747 65.9008 73.0285 65.8851 72.9749 65.854C73.1053 65.9241 73.0516 65.893 72.9518 65.8462C72.8289 65.7915 72.7215 65.7293 72.5986 65.6746C72.3683 65.5577 72.1305 65.4254 71.9158 65.3009C71.4403 65.0363 70.9572 64.7562 70.4741 64.4762C69.991 64.1961 69.2869 64.2528 68.9706 64.7889C68.6783 65.2559 68.7382 65.9714 69.275 66.2826C71.1999 67.3874 73.1704 68.5464 75.3745 68.9996C75.6751 69.0632 75.9144 69.0802 76.1945 68.9437C76.4279 68.8299 76.6708 68.5778 76.7437 68.3323C76.8819 67.8257 76.6524 67.0784 76.0744 66.9591Z" fill="#D3CBCF"/>
<path d="M60.1304 87.1039C59.9141 87.0947 59.6979 87.0856 59.4816 87.0764C59.3812 87.068 59.2809 87.0597 59.173 87.0359C59.1113 87.0278 59.0651 87.0121 59.0034 87.004C58.9648 87.0037 58.7877 86.9564 58.9804 86.9961C59.173 87.0359 58.9959 86.9885 58.9573 86.9883C58.8956 86.9802 58.8494 86.9645 58.7877 86.9564C58.6798 86.9326 58.5644 86.8934 58.4565 86.8696C58.2564 86.8144 58.0642 86.7362 57.8721 86.658C57.7722 86.6112 57.6799 86.5798 57.5801 86.533C57.4266 86.4551 57.5801 86.533 57.6493 86.5565C57.5956 86.5254 57.5495 86.5097 57.4958 86.4786C57.3117 86.3774 57.1201 86.2608 56.9284 86.1441C56.7368 86.0275 56.5532 85.8879 56.3771 85.7637C56.2778 85.6784 56.186 85.6086 56.0867 85.5233C56.018 85.4614 55.9117 85.3222 56.0942 85.5388C56.0486 85.4846 55.9949 85.4535 55.9493 85.3994C55.7356 85.198 55.5134 85.0581 55.2198 85.0485C54.9574 85.0236 54.6237 85.129 54.4279 85.3199C54.0519 85.6941 53.8875 86.4234 54.3223 86.8416C55.1545 87.6007 56.0579 88.2296 57.1029 88.675C58.002 89.0578 58.9809 89.249 59.9468 89.2555C60.5108 89.267 61.088 88.8711 61.1194 88.2639C61.1347 87.7027 60.733 87.1156 60.1304 87.1039Z" fill="#D3CBCF"/>
<path d="M68.8291 52.3709C67.1384 51.6674 65.386 50.9559 63.5083 50.9355C62.9443 50.924 62.3671 51.3199 62.3357 51.9271C62.3129 52.4728 62.7221 53.0753 63.3247 53.0871C63.7653 53.0824 64.1973 53.1391 64.6368 53.2113C64.6755 53.2116 64.7216 53.2273 64.7678 53.2429C64.4823 53.2103 64.6599 53.2192 64.7216 53.2273C64.8295 53.2511 64.9374 53.2749 65.0453 53.2987C65.261 53.3462 65.4687 53.4169 65.6689 53.472C66.5078 53.7314 67.307 54.0675 68.1062 54.4035C68.6209 54.63 69.3291 54.2657 69.4753 53.7362C69.6688 53.1454 69.39 52.613 68.8291 52.3709Z" fill="#D3CBCF"/>
<path d="M57.8551 68.9275C56.252 68.6014 54.7234 67.9144 53.2173 67.2738C52.687 67.0549 51.9944 67.4116 51.8481 67.9411C51.6703 68.5243 51.9565 69.0721 52.5099 69.2988C54.0085 69.9241 55.5371 70.611 57.1477 70.9526C57.4482 71.0161 57.6876 71.0331 57.9676 70.8966C58.201 70.7829 58.444 70.5308 58.5169 70.2852C58.5978 70.0167 58.6019 69.7091 58.466 69.4699C58.3532 69.2384 58.1326 68.9832 57.8551 68.9275Z" fill="#D3CBCF"/>
<path d="M61.2007 38.0638C58.3569 37.4833 55.5869 36.5803 52.743 35.9998C52.1881 35.8884 51.5442 36.0685 51.3739 36.6671C51.2126 37.1658 51.4421 37.9132 52.0356 38.0248C54.8795 38.6054 57.6495 39.5083 60.4933 40.0889C61.0483 40.2003 61.6921 40.0201 61.8625 39.4215C62.0082 38.9304 61.7787 38.1831 61.2007 38.0638Z" fill="#D3CBCF"/>
<path d="M49.9501 54.5651C48.4624 54.2783 46.9319 54.2986 45.4443 54.0118C45.1899 53.9639 44.8401 54.1153 44.6523 54.2832C44.4646 54.4511 44.2984 54.7421 44.2947 55.0112C44.2831 55.3033 44.3487 55.5959 44.5623 55.7973C44.768 56.0217 44.9988 56.1001 45.2918 56.1482C46.7795 56.4351 48.3099 56.4147 49.7976 56.7016C50.052 56.7494 50.4018 56.598 50.5895 56.4302C50.7773 56.2623 50.9435 55.9712 50.9471 55.7021C50.9588 55.41 50.8932 55.1174 50.6795 54.9161C50.4583 54.6993 50.2431 54.6132 49.9501 54.5651Z" fill="#D3CBCF"/>
<path d="M41.4791 77.0052C39.5773 75.9082 37.5806 74.972 35.7737 73.7142C35.3067 73.3881 34.5705 73.5369 34.2703 74.027C33.9619 74.54 34.0615 75.1789 34.5747 75.5207C36.3971 76.7709 38.3783 77.7147 40.2801 78.8117C40.7632 79.0917 41.4672 79.035 41.7836 78.4989C42.0527 78.024 41.9928 77.3086 41.4791 77.0052Z" fill="#D3CBCF"/>
<path d="M41.0326 44.2475C39.0904 43.8576 37.2531 43.1301 35.3034 42.7248C35.0028 42.6612 34.7635 42.6442 34.4834 42.7807C34.2501 42.8945 34.0071 43.1466 33.9342 43.3921C33.7729 43.8908 34.0024 44.6382 34.596 44.7498C36.5382 45.1397 38.3755 45.8672 40.3252 46.2726C40.6258 46.3361 40.8651 46.3531 41.1452 46.2166C41.3785 46.1029 41.6215 45.8508 41.6944 45.6052C41.8401 45.1141 41.6106 44.3667 41.0326 44.2475Z" fill="#D3CBCF"/>
<path d="M34.6895 62.4426C32.8452 61.6613 31.0005 60.9183 29.1085 60.2366C28.5777 60.0562 27.8937 60.3514 27.7394 60.9039C27.5695 61.4641 27.8397 62.0579 28.4011 62.2617C30.2856 62.928 32.1378 63.6863 33.9821 64.4677C34.5124 64.6866 35.205 64.3299 35.3512 63.8003C35.5291 63.2172 35.2428 62.6694 34.6895 62.4426Z" fill="#D3CBCF"/>
<path d="M23.2344 45.9343C21.5898 45.2466 19.9683 44.5667 18.3393 43.8713C17.809 43.6524 17.1164 44.0091 16.9702 44.5387C16.7923 45.1218 17.0786 45.6697 17.632 45.8964C19.261 46.5917 20.898 47.264 22.527 47.9594C23.0573 48.1783 23.7499 47.8216 23.8961 47.292C24.0816 46.7243 23.7953 46.1765 23.2344 45.9343Z" fill="#D3CBCF"/>
<path d="M29.0957 35.4401C28.6551 35.4448 28.2231 35.388 27.7836 35.3159C27.7449 35.3156 27.6988 35.2999 27.6526 35.2842C27.9381 35.3169 27.7605 35.308 27.6988 35.2999C27.5909 35.2761 27.483 35.2523 27.3751 35.2285C27.1594 35.1809 26.9517 35.1103 26.7515 35.0551C25.9126 34.7957 25.1134 34.4597 24.3142 34.1237C23.7839 33.9048 23.0913 34.2615 22.9451 34.791C22.7672 35.3742 23.0535 35.922 23.6068 36.1487C25.2975 36.8522 27.05 37.5637 28.9276 37.5841C29.4916 37.5956 30.0689 37.1997 30.1002 36.5925C30.1 36.0389 29.6908 35.4364 29.0957 35.4401Z" fill="#D3CBCF"/>
<path d="M22.3807 61.7208C21.8027 61.6015 21.2332 61.4208 20.6959 61.1481C20.7727 61.187 20.865 61.2184 20.9493 61.2728C20.2891 60.9454 19.6766 60.5184 19.1032 60.0531C18.9121 59.8981 18.5574 59.8419 18.3095 59.8863C18.046 59.9384 17.7499 60.1209 17.6078 60.3429C17.4732 60.5803 17.3767 60.8565 17.4348 61.1337C17.5004 61.4263 17.6599 61.635 17.8891 61.8287C19.0133 62.7129 20.2554 63.444 21.6658 63.7304C21.9663 63.7939 22.2057 63.8109 22.4857 63.6744C22.7191 63.5607 22.9621 63.3086 23.0349 63.063C23.1158 62.7945 23.12 62.487 22.9841 62.2477C22.8788 62.0317 22.6581 61.7765 22.3807 61.7208Z" fill="#D3CBCF"/>
<path d="M47.77 91.3337C45.9257 90.5523 44.1694 89.5563 42.189 89.1277C41.8885 89.0641 41.6492 89.0471 41.3691 89.1836C41.1357 89.2974 40.8928 89.5495 40.8199 89.795C40.6586 90.2937 40.8881 91.0411 41.4817 91.1527C43.4701 91.5583 45.2183 92.5774 47.0626 93.3588C47.5773 93.5852 48.2855 93.221 48.4317 92.6914C48.6252 92.1007 48.3308 91.5759 47.77 91.3337Z" fill="#D3CBCF"/>
<path d="M75.8223 35.7869C74.5341 35.0401 73.0967 34.4614 71.6171 34.1515C71.3165 34.0879 71.0772 34.0709 70.7971 34.2074C70.5637 34.3212 70.3208 34.5733 70.2479 34.8188C70.167 35.0874 70.1628 35.3949 70.2987 35.6342C70.4271 35.858 70.6478 36.1133 70.9097 36.1765C72.0657 36.415 73.1729 36.83 74.2169 37.3523C74.1402 37.3133 74.0479 37.2819 73.9636 37.2275C74.1863 37.329 74.3935 37.438 74.6082 37.5625C74.8535 37.7103 75.1154 37.7735 75.402 37.7293C75.6654 37.6773 75.9616 37.4948 76.1037 37.2728C76.3959 36.8057 76.336 36.0903 75.8223 35.7869Z" fill="#D3CBCF"/>
<path d="M82.8948 80.4376C86.2267 81.5058 89.6058 82.5128 92.8332 83.8802C93.3635 84.0991 94.0331 83.7346 94.2024 83.2129C94.4033 82.6376 94.0709 82.0741 93.5406 81.8552C90.2977 80.4954 86.9417 79.4962 83.5867 78.4201C83.0403 78.2472 82.4104 78.5351 82.2175 79.0874C82.0402 79.6321 82.3329 80.2723 82.8948 80.4376Z" fill="#D3CBCF"/>
</svg>
