<svg width="74" height="92" viewBox="0 0 74 92" fill="none" xmlns="http://www.w3.org/2000/svg">
<path d="M57.3281 79.7503C55.4248 86.911 45.5727 89.2901 39.1899 89.4629C35.8905 89.5536 32.0983 89.2243 29.3163 87.2917C28.2627 86.5669 27.4284 85.557 27.1175 84.293C26.7647 82.8295 27.0628 80.6379 28.062 79.4935C29.2575 78.13 31.3337 79.4024 32.5594 80.0849C34.1973 80.9931 35.8052 82.0945 37.6025 82.6506C41.3073 83.7917 45.7429 81.3086 46.6859 77.5263C47.6117 73.7937 44.8074 70.0861 41.2662 69.1403C37.4217 68.1082 33.1485 69.0839 29.3372 69.849C25.6646 70.588 21.0962 72.174 17.416 70.8286C14.7167 69.8313 12.7354 67.5924 11.5439 65.025C11.3392 64.5749 10.283 62.7112 10.6937 62.1684C10.7217 62.141 11.6825 62.3064 11.9474 62.3702C15.3287 63.27 18.615 65.5896 22.2258 65.3752C25.6095 65.1748 28.8211 62.3243 27.3642 58.8417C25.875 55.2925 22.3524 53.7332 18.957 52.6342C16.8845 51.9645 14.3207 51.1898 13.301 49.061C12.713 47.8217 12.4127 44.3408 14.1203 43.6354C15.8948 42.8976 17.9287 45.3582 19.785 45.1575C23.1209 44.8018 21.4557 38.9065 20.2122 37.4221C18.6739 35.6138 16.3001 34.692 14.1297 33.8774C11.6068 32.9318 9.01705 32.0186 6.71044 30.5833C4.21152 29.0354 2.50655 26.8272 1.84487 23.9339C1.29347 21.5229 1.68981 18.9951 2.43804 16.6537C3.12923 14.4498 4.27291 11.9027 6.36857 10.6929C8.27461 9.60272 10.0884 10.1646 11.0727 12.022C12.4413 14.5858 12.6712 19.2822 15.9179 20.3298C17.4172 20.8108 19.3552 20.2682 20.4043 19.1133C21.56 17.8379 21.8706 15.9836 22.1231 14.35C22.4486 12.1863 22.5314 9.94811 23.1936 7.85453C23.9132 5.59572 25.662 4.23839 27.7711 3.2831C32.0339 1.35091 37.8212 1.90686 39.5809 6.86338C41.2549 11.5868 37.5823 15.4716 35.8609 19.5493C34.1054 23.6985 34.4543 33.1177 41.1697 30.6542C43.7269 29.7149 45.9893 27.9984 48.2598 26.5252C50.402 25.128 52.8699 23.3529 55.4857 23.0445C57.7635 22.7766 59.7691 24.8388 59.4362 27.1572C59.0729 29.6964 56.2217 31.5889 54.3123 32.9555C49.7784 36.2282 42.1803 39.8208 41.5657 46.1499C41.1665 50.2588 44.1217 53.8519 47.8285 55.2805C52.042 56.9027 57.2616 55.4676 58.5259 50.7601C59.1173 48.5773 58.9802 46.2261 59.8583 44.1238C60.6793 42.1592 62.794 40.3083 64.924 39.9061C68.2413 39.2572 69.6768 43.121 69.8935 45.7495C70.2073 49.4848 68.7589 52.9629 65.7977 55.2523C63.5518 56.9745 59.0676 59.3576 59.9047 62.8389C60.8362 66.7413 64.9508 66.0625 67.9252 65.841C69.9193 65.6972 71.3659 66.4098 71.6437 68.569C71.8915 70.4681 70.6204 72.1292 69.2994 73.3476C66.7191 75.713 63.1611 77.4816 59.7585 78.3231C58.7982 78.5557 59.0727 80.0847 60.0441 79.8466C63.5854 78.979 67.1987 77.211 69.9784 74.8312C72.5847 72.6043 74.7093 68.5918 71.9632 65.5428C69.4138 62.7006 65.4282 65.9406 62.6226 64.1294C58.4223 61.4293 65.7161 57.3799 67.4944 55.8847C70.2285 53.6094 71.5345 50.0081 71.4725 46.5078C71.4248 43.6323 70.4346 40.0056 67.5672 38.719C64.298 37.2565 60.2349 40.0534 58.7501 42.8898C57.679 44.9346 57.6727 47.2455 57.2524 49.4689C56.7022 52.3599 54.7188 54.3393 51.6627 54.4493C47.0842 54.5978 42.1597 50.4909 43.2102 45.6262C43.8964 42.477 46.8299 40.1873 49.2873 38.3623C52.0518 36.3196 55.0726 34.5783 57.6738 32.3126C59.5198 30.702 61.4007 28.5113 60.9239 25.8855C60.4993 23.509 58.5426 21.5192 56.0692 21.4974C53.4021 21.4735 50.8475 23.0983 48.6726 24.4565C46.2074 26.0105 43.8384 27.8475 41.1621 29.0232C38.97 29.9775 37.3411 29.6831 36.7634 27.1612C36.3064 25.1714 36.2833 22.9983 36.9381 21.0595C37.6734 18.8616 39.0087 16.9358 40.0413 14.8685C42.0327 10.8932 42.2649 5.95868 38.6403 2.80049C35.3881 -0.0439833 30.4422 0.282886 26.7567 2.07218C24.8861 2.98035 23.0826 4.28179 22.1735 6.20678C21.2701 8.11525 21.0661 10.3024 20.8139 12.3618C20.5924 14.1727 20.5735 17.0529 19.0194 18.3295C17.3923 19.6826 15.5931 18.839 14.7444 17.2042C13.3387 14.5073 13.0824 9.70004 9.58007 8.74914C4.90291 7.47566 1.91409 12.9105 0.845555 16.5476C-0.529102 21.2263 -0.228319 26.4653 3.45195 30.0498C5.30035 31.8449 7.66604 32.9767 10.028 33.9593C12.5773 35.0158 15.4407 35.7274 17.7233 37.3117C18.8592 38.0927 19.7593 39.1531 20.0243 40.5492C20.1387 41.1531 20.3834 42.8476 19.9117 43.4063C19.4062 44.0089 18.3688 43.3174 17.769 43.0454C15.6391 42.0876 13.1202 41.2636 11.8972 43.9592C11.0552 45.8241 11.0307 48.2675 12.0434 50.07C13.0611 51.9112 15.0135 52.9003 16.914 53.6123C18.9136 54.3587 21.106 54.7367 22.8559 55.9889C24.2219 56.9605 25.792 58.4374 26.1306 60.155C26.5687 62.3326 24.006 63.7141 22.1503 63.8595C20.2835 64.0103 18.3021 63.1314 16.6058 62.4714C15.1517 61.9135 9.70946 58.9509 9.12412 61.9962C8.74572 63.9658 10.4452 66.6162 11.517 68.1152C12.915 70.0878 14.8879 71.6576 17.2084 72.413C20.951 73.632 25.351 72.2376 29.057 71.4824C32.9516 70.6905 37.8993 69.3188 41.7475 70.9535C43.7073 71.7879 45.2749 73.9116 45.2761 76.0678C45.2829 78.6608 43.061 80.6874 40.6634 81.247C36.6953 82.1707 33.7792 78.0915 30.0852 77.426C26.5072 76.7728 25.082 81.0639 25.4282 83.9592C25.7747 86.8269 28.0756 88.732 30.6198 89.7497C37.338 92.45 46.4643 91.0415 52.5957 87.4603C55.3827 85.8324 57.88 83.4661 58.7329 80.2634C59.0438 79.2882 57.589 78.7856 57.3281 79.7503Z" fill="#7EB693"/>
</svg>
